<svg xmlns="http://www.w3.org/2000/svg" viewBox="0 0 32 32" x="0px" y="0px"><path fill="currentColor" d="m23.4667,17.8667h-14.9333c-.1493,0-.2667.1173-.2667.2667v13.8667h15.4667v-13.8667c0-.1493-.1173-.2667-.2667-.2667Zm-3.2,9.9947h-8.5333c-.4373,0-.8-.352-.8-.7893,0-.448.3627-.8107.8-.8107h8.5333c.4374,0,.8.3627.8.8107,0,.4373-.3626.7893-.8.7893Zm0-4.2667h-8.5333c-.4373,0-.8-.352-.8-.7893,0-.448.3627-.8107.8-.8107h8.5333c.4374,0,.8.3627.8.8107,0,.4373-.3626.7893-.8.7893Z" style="" stroke-width=" 0px"/><path fill="currentColor" d="m10.4,5.3333V0h11.2v5.3333c0,.1493-.1173.2667-.2667.2667h-10.6667c-.1493,0-.2667-.1173-.2667-.2667Z" style="" stroke-width=" 0px"/><path fill="currentColor" d="m29.8667,6.4v23.4667c0,1.1733-.96,2.1333-2.1333,2.1333h-2.4v-13.8667c0-1.024-.8426-1.8667-1.8667-1.8667h-14.9333c-1.024,0-1.8667.8426-1.8667,1.8667v13.8667h-2.4c-1.1733,0-2.1333-.96-2.1333-2.1333V2.1333c0-1.1733.96-2.1333,2.1333-2.1333h4.5333v5.3333c0,1.024.8427,1.8667,1.8667,1.8667h10.6667c1.024,0,1.8667-.8426,1.8667-1.8667V0h.2667l6.4,6.4Z" style="" stroke-width=" 0px"/></svg>
