<svg xmlns="http://www.w3.org/2000/svg" viewBox="0 0 23 23" fill="none" x="0px" y="0px"><path fill="currentColor" d="M22.5611 20.4391L17.3281 15.2061C18.6406 13.3613 19.2122 11.0908 18.9294 8.84444C18.6466 6.59813 17.5301 4.54006 15.8013 3.07822C14.0724 1.61638 11.8574 0.857479 9.59534 0.951963C7.33326 1.04645 5.18926 1.98742 3.58834 3.58834C1.98742 5.18926 1.04645 7.33326 0.951963 9.59534C0.857479 11.8574 1.61638 14.0724 3.07822 15.8013C4.54006 17.5301 6.59813 18.6466 8.84444 18.9294C11.0908 19.2122 13.3613 18.6406 15.2061 17.3281L20.4391 22.5611C20.7205 22.8425 21.1021 23.0006 21.5001 23.0006C21.898 23.0006 22.2797 22.8425 22.5611 22.5611C22.8425 22.2797 23.0006 21.898 23.0006 21.5001C23.0006 21.1021 22.8425 20.7205 22.5611 20.4391ZM3.00007 10.0001C3.00007 8.6156 3.41061 7.26222 4.17978 6.11108C4.94895 4.95993 6.0422 4.06273 7.32129 3.53291C8.60037 3.0031 10.0078 2.86448 11.3657 3.13457C12.7236 3.40467 13.9709 4.07135 14.9498 5.05032C15.9288 6.02929 16.5955 7.27657 16.8656 8.63444C17.1357 9.99231 16.997 11.3998 16.4672 12.6789C15.9374 13.9579 15.0402 15.0512 13.8891 15.8204C12.7379 16.5895 11.3845 17.0001 10.0001 17.0001C8.14421 16.998 6.36496 16.2598 5.05266 14.9475C3.74037 13.6352 3.00219 11.8559 3.00007 10.0001Z" /></svg>
