<?xml version="1.0" encoding="utf-8"?>
<!-- Generator: Adobe Illustrator 25.4.1, SVG Export Plug-In . SVG Version: 6.00 Build 0)  -->
<svg version="1.1" id="Layer_1" xmlns="http://www.w3.org/2000/svg" xmlns:xlink="http://www.w3.org/1999/xlink" x="0px" y="0px"
	 viewBox="0 0 23 23" style="enable-background:new 0 0 23 23;" xml:space="preserve">
<style type="text/css">
	.st0{fill:none;stroke:#000000;stroke-width:3;stroke-linecap:round;stroke-linejoin:round;stroke-miterlimit:10;}
</style>
<path d="M22.6,20.4l-5.2-5.2c1.3-1.8,1.9-4.1,1.6-6.4c-0.3-2.2-1.4-4.3-3.1-5.8C14.1,1.6,11.9,0.9,9.6,1C7.3,1,5.2,2,3.6,3.6
	S1,7.3,1,9.6c-0.1,2.3,0.7,4.5,2.1,6.2c1.5,1.7,3.5,2.8,5.8,3.1c2.2,0.3,4.5-0.3,6.4-1.6l5.2,5.2c0.3,0.3,0.7,0.4,1.1,0.4
	c0.4,0,0.8-0.2,1.1-0.4s0.4-0.7,0.4-1.1C23,21.1,22.8,20.7,22.6,20.4z M3,10c0-1.4,0.4-2.7,1.2-3.9C4.9,5,6,4.1,7.3,3.5
	c1.3-0.5,2.7-0.7,4-0.4c1.4,0.3,2.6,0.9,3.6,1.9c1,1,1.6,2.2,1.9,3.6c0.3,1.4,0.1,2.8-0.4,4c-0.5,1.3-1.4,2.4-2.6,3.1
	C12.7,16.6,11.4,17,10,17c-1.9,0-3.6-0.7-4.9-2.1C3.7,13.6,3,11.9,3,10z"/>
<line class="st0" x1="5.6" y1="10" x2="14.4" y2="10"/>
</svg>
